<mxfile host="Electron" modified="2023-12-30T17:39:49.188Z" agent="Mozilla/5.0 (X11; Linux x86_64) AppleWebKit/537.36 (KHTML, like Gecko) draw.io/22.0.2 Chrome/114.0.5735.289 Electron/25.8.4 Safari/537.36" etag="CyoHGpZWi3bF5wvx7FWj" version="22.0.2" type="device">
  <diagram name="Page-1" id="4numGMBKxnWJPPl3NIu1">
    <mxGraphModel dx="679" dy="843" grid="1" gridSize="10" guides="1" tooltips="1" connect="1" arrows="1" fold="1" page="1" pageScale="1" pageWidth="850" pageHeight="1100" math="0" shadow="0">
      <root>
        <mxCell id="0" />
        <mxCell id="1" parent="0" />
        <mxCell id="ICdz5vnAY_I7-9OW_fg8-1" value="&amp;lt;&amp;lt;controller&amp;gt;&amp;gt;&lt;br&gt;watchLesson" style="swimlane;fontStyle=1;align=center;verticalAlign=top;childLayout=stackLayout;horizontal=1;startSize=40;horizontalStack=0;resizeParent=1;resizeParentMax=0;resizeLast=0;collapsible=1;marginBottom=0;whiteSpace=wrap;html=1;" vertex="1" parent="1">
          <mxGeometry x="30" y="280" width="190" height="74" as="geometry" />
        </mxCell>
        <mxCell id="ICdz5vnAY_I7-9OW_fg8-3" value="" style="line;strokeWidth=1;fillColor=none;align=left;verticalAlign=middle;spacingTop=-1;spacingLeft=3;spacingRight=3;rotatable=0;labelPosition=right;points=[];portConstraint=eastwest;strokeColor=inherit;" vertex="1" parent="ICdz5vnAY_I7-9OW_fg8-1">
          <mxGeometry y="40" width="190" height="8" as="geometry" />
        </mxCell>
        <mxCell id="ICdz5vnAY_I7-9OW_fg8-4" value="+ startLesson(lesson : Lesson)" style="text;strokeColor=none;fillColor=none;align=left;verticalAlign=top;spacingLeft=4;spacingRight=4;overflow=hidden;rotatable=0;points=[[0,0.5],[1,0.5]];portConstraint=eastwest;whiteSpace=wrap;html=1;" vertex="1" parent="ICdz5vnAY_I7-9OW_fg8-1">
          <mxGeometry y="48" width="190" height="26" as="geometry" />
        </mxCell>
        <mxCell id="ICdz5vnAY_I7-9OW_fg8-5" value="&amp;lt;&amp;lt;controller&amp;gt;&amp;gt;&lt;br&gt;personalAreaGUI" style="swimlane;fontStyle=1;align=center;verticalAlign=top;childLayout=stackLayout;horizontal=1;startSize=40;horizontalStack=0;resizeParent=1;resizeParentMax=0;resizeLast=0;collapsible=1;marginBottom=0;whiteSpace=wrap;html=1;" vertex="1" parent="1">
          <mxGeometry x="100" y="120" width="160" height="74" as="geometry" />
        </mxCell>
        <mxCell id="ICdz5vnAY_I7-9OW_fg8-7" value="" style="line;strokeWidth=1;fillColor=none;align=left;verticalAlign=middle;spacingTop=-1;spacingLeft=3;spacingRight=3;rotatable=0;labelPosition=right;points=[];portConstraint=eastwest;strokeColor=inherit;" vertex="1" parent="ICdz5vnAY_I7-9OW_fg8-5">
          <mxGeometry y="40" width="160" height="8" as="geometry" />
        </mxCell>
        <mxCell id="ICdz5vnAY_I7-9OW_fg8-8" value="+ chooseCourse()" style="text;strokeColor=none;fillColor=none;align=left;verticalAlign=top;spacingLeft=4;spacingRight=4;overflow=hidden;rotatable=0;points=[[0,0.5],[1,0.5]];portConstraint=eastwest;whiteSpace=wrap;html=1;" vertex="1" parent="ICdz5vnAY_I7-9OW_fg8-5">
          <mxGeometry y="48" width="160" height="26" as="geometry" />
        </mxCell>
        <mxCell id="ICdz5vnAY_I7-9OW_fg8-9" value="&amp;lt;&amp;lt;controller&amp;gt;&amp;gt;&lt;br&gt;lessonPageGUI" style="swimlane;fontStyle=1;align=center;verticalAlign=top;childLayout=stackLayout;horizontal=1;startSize=40;horizontalStack=0;resizeParent=1;resizeParentMax=0;resizeLast=0;collapsible=1;marginBottom=0;whiteSpace=wrap;html=1;" vertex="1" parent="1">
          <mxGeometry x="400" y="330" width="160" height="100" as="geometry" />
        </mxCell>
        <mxCell id="ICdz5vnAY_I7-9OW_fg8-11" value="" style="line;strokeWidth=1;fillColor=none;align=left;verticalAlign=middle;spacingTop=-1;spacingLeft=3;spacingRight=3;rotatable=0;labelPosition=right;points=[];portConstraint=eastwest;strokeColor=inherit;" vertex="1" parent="ICdz5vnAY_I7-9OW_fg8-9">
          <mxGeometry y="40" width="160" height="8" as="geometry" />
        </mxCell>
        <mxCell id="ICdz5vnAY_I7-9OW_fg8-12" value="+ review()" style="text;strokeColor=none;fillColor=none;align=left;verticalAlign=top;spacingLeft=4;spacingRight=4;overflow=hidden;rotatable=0;points=[[0,0.5],[1,0.5]];portConstraint=eastwest;whiteSpace=wrap;html=1;" vertex="1" parent="ICdz5vnAY_I7-9OW_fg8-9">
          <mxGeometry y="48" width="160" height="26" as="geometry" />
        </mxCell>
        <mxCell id="ICdz5vnAY_I7-9OW_fg8-68" value="+ home()" style="text;strokeColor=none;fillColor=none;align=left;verticalAlign=top;spacingLeft=4;spacingRight=4;overflow=hidden;rotatable=0;points=[[0,0.5],[1,0.5]];portConstraint=eastwest;whiteSpace=wrap;html=1;" vertex="1" parent="ICdz5vnAY_I7-9OW_fg8-9">
          <mxGeometry y="74" width="160" height="26" as="geometry" />
        </mxCell>
        <mxCell id="ICdz5vnAY_I7-9OW_fg8-18" value="&amp;lt;&amp;lt;entity&amp;gt;&amp;gt;&lt;br&gt;course" style="swimlane;fontStyle=1;align=center;verticalAlign=top;childLayout=stackLayout;horizontal=1;startSize=40;horizontalStack=0;resizeParent=1;resizeParentMax=0;resizeLast=0;collapsible=1;marginBottom=0;whiteSpace=wrap;html=1;" vertex="1" parent="1">
          <mxGeometry x="45" y="390" width="160" height="204" as="geometry" />
        </mxCell>
        <mxCell id="ICdz5vnAY_I7-9OW_fg8-19" value="+ price: Double" style="text;strokeColor=none;fillColor=none;align=left;verticalAlign=top;spacingLeft=4;spacingRight=4;overflow=hidden;rotatable=0;points=[[0,0.5],[1,0.5]];portConstraint=eastwest;whiteSpace=wrap;html=1;" vertex="1" parent="ICdz5vnAY_I7-9OW_fg8-18">
          <mxGeometry y="40" width="160" height="26" as="geometry" />
        </mxCell>
        <mxCell id="ICdz5vnAY_I7-9OW_fg8-20" value="+ courseDescription : String" style="text;strokeColor=none;fillColor=none;align=left;verticalAlign=top;spacingLeft=4;spacingRight=4;overflow=hidden;rotatable=0;points=[[0,0.5],[1,0.5]];portConstraint=eastwest;whiteSpace=wrap;html=1;" vertex="1" parent="ICdz5vnAY_I7-9OW_fg8-18">
          <mxGeometry y="66" width="160" height="26" as="geometry" />
        </mxCell>
        <mxCell id="ICdz5vnAY_I7-9OW_fg8-21" value="+ totalHours: Integer" style="text;strokeColor=none;fillColor=none;align=left;verticalAlign=top;spacingLeft=4;spacingRight=4;overflow=hidden;rotatable=0;points=[[0,0.5],[1,0.5]];portConstraint=eastwest;whiteSpace=wrap;html=1;" vertex="1" parent="ICdz5vnAY_I7-9OW_fg8-18">
          <mxGeometry y="92" width="160" height="26" as="geometry" />
        </mxCell>
        <mxCell id="ICdz5vnAY_I7-9OW_fg8-22" value="+ courseSubject: String" style="text;strokeColor=none;fillColor=none;align=left;verticalAlign=top;spacingLeft=4;spacingRight=4;overflow=hidden;rotatable=0;points=[[0,0.5],[1,0.5]];portConstraint=eastwest;whiteSpace=wrap;html=1;" vertex="1" parent="ICdz5vnAY_I7-9OW_fg8-18">
          <mxGeometry y="118" width="160" height="26" as="geometry" />
        </mxCell>
        <mxCell id="ICdz5vnAY_I7-9OW_fg8-23" value="+ professorName: String" style="text;strokeColor=none;fillColor=none;align=left;verticalAlign=top;spacingLeft=4;spacingRight=4;overflow=hidden;rotatable=0;points=[[0,0.5],[1,0.5]];portConstraint=eastwest;whiteSpace=wrap;html=1;" vertex="1" parent="ICdz5vnAY_I7-9OW_fg8-18">
          <mxGeometry y="144" width="160" height="26" as="geometry" />
        </mxCell>
        <mxCell id="ICdz5vnAY_I7-9OW_fg8-24" value="+ isAccepted : Boolean" style="text;strokeColor=none;fillColor=none;align=left;verticalAlign=top;spacingLeft=4;spacingRight=4;overflow=hidden;rotatable=0;points=[[0,0.5],[1,0.5]];portConstraint=eastwest;whiteSpace=wrap;html=1;" vertex="1" parent="ICdz5vnAY_I7-9OW_fg8-18">
          <mxGeometry y="170" width="160" height="26" as="geometry" />
        </mxCell>
        <mxCell id="ICdz5vnAY_I7-9OW_fg8-25" value="" style="line;strokeWidth=1;fillColor=none;align=left;verticalAlign=middle;spacingTop=-1;spacingLeft=3;spacingRight=3;rotatable=0;labelPosition=right;points=[];portConstraint=eastwest;strokeColor=inherit;" vertex="1" parent="ICdz5vnAY_I7-9OW_fg8-18">
          <mxGeometry y="196" width="160" height="8" as="geometry" />
        </mxCell>
        <mxCell id="ICdz5vnAY_I7-9OW_fg8-26" value="&amp;lt;&amp;lt;entity&amp;gt;&amp;gt;&lt;br&gt;lesson" style="swimlane;fontStyle=1;align=center;verticalAlign=top;childLayout=stackLayout;horizontal=1;startSize=40;horizontalStack=0;resizeParent=1;resizeParentMax=0;resizeLast=0;collapsible=1;marginBottom=0;whiteSpace=wrap;html=1;" vertex="1" parent="1">
          <mxGeometry x="45" y="640" width="160" height="126" as="geometry" />
        </mxCell>
        <mxCell id="ICdz5vnAY_I7-9OW_fg8-27" value="+ title : String" style="text;strokeColor=none;fillColor=none;align=left;verticalAlign=top;spacingLeft=4;spacingRight=4;overflow=hidden;rotatable=0;points=[[0,0.5],[1,0.5]];portConstraint=eastwest;whiteSpace=wrap;html=1;" vertex="1" parent="ICdz5vnAY_I7-9OW_fg8-26">
          <mxGeometry y="40" width="160" height="26" as="geometry" />
        </mxCell>
        <mxCell id="ICdz5vnAY_I7-9OW_fg8-28" value="+ lastWatched : Boolean" style="text;strokeColor=none;fillColor=none;align=left;verticalAlign=top;spacingLeft=4;spacingRight=4;overflow=hidden;rotatable=0;points=[[0,0.5],[1,0.5]];portConstraint=eastwest;whiteSpace=wrap;html=1;" vertex="1" parent="ICdz5vnAY_I7-9OW_fg8-26">
          <mxGeometry y="66" width="160" height="26" as="geometry" />
        </mxCell>
        <mxCell id="ICdz5vnAY_I7-9OW_fg8-29" value="+ lessonDescription : String" style="text;strokeColor=none;fillColor=none;align=left;verticalAlign=top;spacingLeft=4;spacingRight=4;overflow=hidden;rotatable=0;points=[[0,0.5],[1,0.5]];portConstraint=eastwest;whiteSpace=wrap;html=1;" vertex="1" parent="ICdz5vnAY_I7-9OW_fg8-26">
          <mxGeometry y="92" width="160" height="26" as="geometry" />
        </mxCell>
        <mxCell id="ICdz5vnAY_I7-9OW_fg8-30" value="" style="line;strokeWidth=1;fillColor=none;align=left;verticalAlign=middle;spacingTop=-1;spacingLeft=3;spacingRight=3;rotatable=0;labelPosition=right;points=[];portConstraint=eastwest;strokeColor=inherit;" vertex="1" parent="ICdz5vnAY_I7-9OW_fg8-26">
          <mxGeometry y="118" width="160" height="8" as="geometry" />
        </mxCell>
        <mxCell id="ICdz5vnAY_I7-9OW_fg8-31" value="" style="endArrow=diamondThin;endFill=1;endSize=24;html=1;rounded=0;" edge="1" parent="1" source="ICdz5vnAY_I7-9OW_fg8-26" target="ICdz5vnAY_I7-9OW_fg8-18">
          <mxGeometry width="160" relative="1" as="geometry">
            <mxPoint x="415" y="730" as="sourcePoint" />
            <mxPoint x="575" y="730" as="targetPoint" />
          </mxGeometry>
        </mxCell>
        <mxCell id="ICdz5vnAY_I7-9OW_fg8-32" value="" style="endArrow=open;endFill=1;endSize=12;html=1;rounded=0;" edge="1" parent="1" source="ICdz5vnAY_I7-9OW_fg8-1" target="ICdz5vnAY_I7-9OW_fg8-5">
          <mxGeometry width="160" relative="1" as="geometry">
            <mxPoint x="380" y="550" as="sourcePoint" />
            <mxPoint x="540" y="550" as="targetPoint" />
          </mxGeometry>
        </mxCell>
        <mxCell id="ICdz5vnAY_I7-9OW_fg8-33" value="" style="endArrow=open;endFill=1;endSize=12;html=1;rounded=0;" edge="1" parent="1" source="ICdz5vnAY_I7-9OW_fg8-5" target="ICdz5vnAY_I7-9OW_fg8-57">
          <mxGeometry width="160" relative="1" as="geometry">
            <mxPoint x="290" y="140" as="sourcePoint" />
            <mxPoint x="427.03125" y="310" as="targetPoint" />
          </mxGeometry>
        </mxCell>
        <mxCell id="ICdz5vnAY_I7-9OW_fg8-34" value="" style="endArrow=open;endFill=1;endSize=12;html=1;rounded=0;" edge="1" parent="1" source="ICdz5vnAY_I7-9OW_fg8-1" target="ICdz5vnAY_I7-9OW_fg8-57">
          <mxGeometry width="160" relative="1" as="geometry">
            <mxPoint x="300" y="550" as="sourcePoint" />
            <mxPoint x="410" y="340.8730158730159" as="targetPoint" />
          </mxGeometry>
        </mxCell>
        <mxCell id="ICdz5vnAY_I7-9OW_fg8-35" value="" style="endArrow=open;endFill=1;endSize=12;html=1;rounded=0;" edge="1" parent="1" source="ICdz5vnAY_I7-9OW_fg8-5" target="ICdz5vnAY_I7-9OW_fg8-9">
          <mxGeometry width="160" relative="1" as="geometry">
            <mxPoint x="260" y="290" as="sourcePoint" />
            <mxPoint x="350" y="249" as="targetPoint" />
          </mxGeometry>
        </mxCell>
        <mxCell id="ICdz5vnAY_I7-9OW_fg8-36" value="" style="endArrow=open;endFill=1;endSize=12;html=1;rounded=0;" edge="1" parent="1" source="ICdz5vnAY_I7-9OW_fg8-1" target="ICdz5vnAY_I7-9OW_fg8-18">
          <mxGeometry width="160" relative="1" as="geometry">
            <mxPoint x="260" y="304" as="sourcePoint" />
            <mxPoint x="360" y="275" as="targetPoint" />
          </mxGeometry>
        </mxCell>
        <mxCell id="ICdz5vnAY_I7-9OW_fg8-37" value="&amp;lt;&amp;lt;view&amp;gt;&amp;gt;&lt;br&gt;personalInfo" style="swimlane;fontStyle=1;align=center;verticalAlign=top;childLayout=stackLayout;horizontal=1;startSize=34;horizontalStack=0;resizeParent=1;resizeParentMax=0;resizeLast=0;collapsible=1;marginBottom=0;whiteSpace=wrap;html=1;" vertex="1" parent="1">
          <mxGeometry x="80" y="20" width="160" height="42" as="geometry" />
        </mxCell>
        <mxCell id="ICdz5vnAY_I7-9OW_fg8-39" value="" style="line;strokeWidth=1;fillColor=none;align=left;verticalAlign=middle;spacingTop=-1;spacingLeft=3;spacingRight=3;rotatable=0;labelPosition=right;points=[];portConstraint=eastwest;strokeColor=inherit;" vertex="1" parent="ICdz5vnAY_I7-9OW_fg8-37">
          <mxGeometry y="34" width="160" height="8" as="geometry" />
        </mxCell>
        <mxCell id="ICdz5vnAY_I7-9OW_fg8-41" value="&amp;lt;&amp;lt;view&amp;gt;&amp;gt;&lt;br&gt;purchasedCourses" style="swimlane;fontStyle=1;align=center;verticalAlign=top;childLayout=stackLayout;horizontal=1;startSize=34;horizontalStack=0;resizeParent=1;resizeParentMax=0;resizeLast=0;collapsible=1;marginBottom=0;whiteSpace=wrap;html=1;" vertex="1" parent="1">
          <mxGeometry x="280" y="20" width="160" height="42" as="geometry" />
        </mxCell>
        <mxCell id="ICdz5vnAY_I7-9OW_fg8-42" value="" style="line;strokeWidth=1;fillColor=none;align=left;verticalAlign=middle;spacingTop=-1;spacingLeft=3;spacingRight=3;rotatable=0;labelPosition=right;points=[];portConstraint=eastwest;strokeColor=inherit;" vertex="1" parent="ICdz5vnAY_I7-9OW_fg8-41">
          <mxGeometry y="34" width="160" height="8" as="geometry" />
        </mxCell>
        <mxCell id="ICdz5vnAY_I7-9OW_fg8-43" value="" style="endArrow=open;endFill=1;endSize=12;html=1;rounded=0;" edge="1" parent="1" source="ICdz5vnAY_I7-9OW_fg8-5" target="ICdz5vnAY_I7-9OW_fg8-37">
          <mxGeometry width="160" relative="1" as="geometry">
            <mxPoint x="183" y="290" as="sourcePoint" />
            <mxPoint x="187" y="230" as="targetPoint" />
          </mxGeometry>
        </mxCell>
        <mxCell id="ICdz5vnAY_I7-9OW_fg8-44" value="" style="endArrow=open;endFill=1;endSize=12;html=1;rounded=0;" edge="1" parent="1" source="ICdz5vnAY_I7-9OW_fg8-5" target="ICdz5vnAY_I7-9OW_fg8-41">
          <mxGeometry width="160" relative="1" as="geometry">
            <mxPoint x="182" y="130" as="sourcePoint" />
            <mxPoint x="173" y="72" as="targetPoint" />
          </mxGeometry>
        </mxCell>
        <mxCell id="ICdz5vnAY_I7-9OW_fg8-45" value="&amp;lt;&amp;lt;bean&amp;gt;&amp;gt;&lt;br&gt;courseBean" style="swimlane;fontStyle=1;align=center;verticalAlign=top;childLayout=stackLayout;horizontal=1;startSize=35;horizontalStack=0;resizeParent=1;resizeParentMax=0;resizeLast=0;collapsible=1;marginBottom=0;whiteSpace=wrap;html=1;" vertex="1" parent="1">
          <mxGeometry x="400" y="90" width="160" height="95" as="geometry" />
        </mxCell>
        <mxCell id="ICdz5vnAY_I7-9OW_fg8-46" value="+ title : String" style="text;strokeColor=none;fillColor=none;align=left;verticalAlign=top;spacingLeft=4;spacingRight=4;overflow=hidden;rotatable=0;points=[[0,0.5],[1,0.5]];portConstraint=eastwest;whiteSpace=wrap;html=1;" vertex="1" parent="ICdz5vnAY_I7-9OW_fg8-45">
          <mxGeometry y="35" width="160" height="26" as="geometry" />
        </mxCell>
        <mxCell id="ICdz5vnAY_I7-9OW_fg8-56" value="+ description : String" style="text;strokeColor=none;fillColor=none;align=left;verticalAlign=top;spacingLeft=4;spacingRight=4;overflow=hidden;rotatable=0;points=[[0,0.5],[1,0.5]];portConstraint=eastwest;whiteSpace=wrap;html=1;" vertex="1" parent="ICdz5vnAY_I7-9OW_fg8-45">
          <mxGeometry y="61" width="160" height="26" as="geometry" />
        </mxCell>
        <mxCell id="ICdz5vnAY_I7-9OW_fg8-47" value="" style="line;strokeWidth=1;fillColor=none;align=left;verticalAlign=middle;spacingTop=-1;spacingLeft=3;spacingRight=3;rotatable=0;labelPosition=right;points=[];portConstraint=eastwest;strokeColor=inherit;" vertex="1" parent="ICdz5vnAY_I7-9OW_fg8-45">
          <mxGeometry y="87" width="160" height="8" as="geometry" />
        </mxCell>
        <mxCell id="ICdz5vnAY_I7-9OW_fg8-49" value="" style="endArrow=open;endFill=1;endSize=12;html=1;rounded=0;" edge="1" parent="1" source="ICdz5vnAY_I7-9OW_fg8-5" target="ICdz5vnAY_I7-9OW_fg8-45">
          <mxGeometry width="160" relative="1" as="geometry">
            <mxPoint x="270" y="230" as="sourcePoint" />
            <mxPoint x="420" y="322" as="targetPoint" />
          </mxGeometry>
        </mxCell>
        <mxCell id="ICdz5vnAY_I7-9OW_fg8-50" value="" style="endArrow=open;endFill=1;endSize=12;html=1;rounded=0;" edge="1" parent="1" source="ICdz5vnAY_I7-9OW_fg8-1" target="ICdz5vnAY_I7-9OW_fg8-45">
          <mxGeometry width="160" relative="1" as="geometry">
            <mxPoint x="270" y="187" as="sourcePoint" />
            <mxPoint x="355" y="195" as="targetPoint" />
          </mxGeometry>
        </mxCell>
        <mxCell id="ICdz5vnAY_I7-9OW_fg8-51" value="&amp;lt;&amp;lt;view&amp;gt;&amp;gt;&lt;br&gt;lessonVIew" style="swimlane;fontStyle=1;align=center;verticalAlign=top;childLayout=stackLayout;horizontal=1;startSize=38;horizontalStack=0;resizeParent=1;resizeParentMax=0;resizeLast=0;collapsible=1;marginBottom=0;whiteSpace=wrap;html=1;" vertex="1" parent="1">
          <mxGeometry x="645" y="360" width="160" height="46" as="geometry" />
        </mxCell>
        <mxCell id="ICdz5vnAY_I7-9OW_fg8-53" value="" style="line;strokeWidth=1;fillColor=none;align=left;verticalAlign=middle;spacingTop=-1;spacingLeft=3;spacingRight=3;rotatable=0;labelPosition=right;points=[];portConstraint=eastwest;strokeColor=inherit;" vertex="1" parent="ICdz5vnAY_I7-9OW_fg8-51">
          <mxGeometry y="38" width="160" height="8" as="geometry" />
        </mxCell>
        <mxCell id="ICdz5vnAY_I7-9OW_fg8-55" value="" style="endArrow=open;endFill=1;endSize=12;html=1;rounded=0;" edge="1" parent="1" source="ICdz5vnAY_I7-9OW_fg8-9" target="ICdz5vnAY_I7-9OW_fg8-51">
          <mxGeometry width="160" relative="1" as="geometry">
            <mxPoint x="176" y="364" as="sourcePoint" />
            <mxPoint x="172" y="400" as="targetPoint" />
          </mxGeometry>
        </mxCell>
        <mxCell id="ICdz5vnAY_I7-9OW_fg8-57" value="&amp;lt;&amp;lt;controller&amp;gt;&amp;gt;&lt;br&gt;login" style="swimlane;fontStyle=1;align=center;verticalAlign=top;childLayout=stackLayout;horizontal=1;startSize=40;horizontalStack=0;resizeParent=1;resizeParentMax=0;resizeLast=0;collapsible=1;marginBottom=0;whiteSpace=wrap;html=1;" vertex="1" parent="1">
          <mxGeometry x="400" y="210" width="160" height="100" as="geometry" />
        </mxCell>
        <mxCell id="ICdz5vnAY_I7-9OW_fg8-58" value="" style="line;strokeWidth=1;fillColor=none;align=left;verticalAlign=middle;spacingTop=-1;spacingLeft=3;spacingRight=3;rotatable=0;labelPosition=right;points=[];portConstraint=eastwest;strokeColor=inherit;" vertex="1" parent="ICdz5vnAY_I7-9OW_fg8-57">
          <mxGeometry y="40" width="160" height="8" as="geometry" />
        </mxCell>
        <mxCell id="ICdz5vnAY_I7-9OW_fg8-59" value="+ loginMethod()" style="text;strokeColor=none;fillColor=none;align=left;verticalAlign=top;spacingLeft=4;spacingRight=4;overflow=hidden;rotatable=0;points=[[0,0.5],[1,0.5]];portConstraint=eastwest;whiteSpace=wrap;html=1;" vertex="1" parent="ICdz5vnAY_I7-9OW_fg8-57">
          <mxGeometry y="48" width="160" height="26" as="geometry" />
        </mxCell>
        <mxCell id="ICdz5vnAY_I7-9OW_fg8-60" value="+ signInMethod()" style="text;strokeColor=none;fillColor=none;align=left;verticalAlign=top;spacingLeft=4;spacingRight=4;overflow=hidden;rotatable=0;points=[[0,0.5],[1,0.5]];portConstraint=eastwest;whiteSpace=wrap;html=1;" vertex="1" parent="ICdz5vnAY_I7-9OW_fg8-57">
          <mxGeometry y="74" width="160" height="26" as="geometry" />
        </mxCell>
        <mxCell id="ICdz5vnAY_I7-9OW_fg8-61" value="&amp;lt;&amp;lt;Bean&amp;gt;&amp;gt;&lt;br&gt;beanUser" style="swimlane;fontStyle=1;align=center;verticalAlign=top;childLayout=stackLayout;horizontal=1;startSize=40;horizontalStack=0;resizeParent=1;resizeParentMax=0;resizeLast=0;collapsible=1;marginBottom=0;whiteSpace=wrap;html=1;" vertex="1" parent="1">
          <mxGeometry x="645" y="175" width="160" height="152" as="geometry" />
        </mxCell>
        <mxCell id="ICdz5vnAY_I7-9OW_fg8-62" value="+ email : String" style="text;strokeColor=none;fillColor=none;align=left;verticalAlign=top;spacingLeft=4;spacingRight=4;overflow=hidden;rotatable=0;points=[[0,0.5],[1,0.5]];portConstraint=eastwest;whiteSpace=wrap;html=1;" vertex="1" parent="ICdz5vnAY_I7-9OW_fg8-61">
          <mxGeometry y="40" width="160" height="26" as="geometry" />
        </mxCell>
        <mxCell id="ICdz5vnAY_I7-9OW_fg8-63" value="+ username : String" style="text;strokeColor=none;fillColor=none;align=left;verticalAlign=top;spacingLeft=4;spacingRight=4;overflow=hidden;rotatable=0;points=[[0,0.5],[1,0.5]];portConstraint=eastwest;whiteSpace=wrap;html=1;" vertex="1" parent="ICdz5vnAY_I7-9OW_fg8-61">
          <mxGeometry y="66" width="160" height="26" as="geometry" />
        </mxCell>
        <mxCell id="ICdz5vnAY_I7-9OW_fg8-64" value="+ pw : String" style="text;strokeColor=none;fillColor=none;align=left;verticalAlign=top;spacingLeft=4;spacingRight=4;overflow=hidden;rotatable=0;points=[[0,0.5],[1,0.5]];portConstraint=eastwest;whiteSpace=wrap;html=1;" vertex="1" parent="ICdz5vnAY_I7-9OW_fg8-61">
          <mxGeometry y="92" width="160" height="26" as="geometry" />
        </mxCell>
        <mxCell id="ICdz5vnAY_I7-9OW_fg8-65" value="+ isProfessor : Boolean" style="text;strokeColor=none;fillColor=none;align=left;verticalAlign=top;spacingLeft=4;spacingRight=4;overflow=hidden;rotatable=0;points=[[0,0.5],[1,0.5]];portConstraint=eastwest;whiteSpace=wrap;html=1;" vertex="1" parent="ICdz5vnAY_I7-9OW_fg8-61">
          <mxGeometry y="118" width="160" height="26" as="geometry" />
        </mxCell>
        <mxCell id="ICdz5vnAY_I7-9OW_fg8-66" value="" style="line;strokeWidth=1;fillColor=none;align=left;verticalAlign=middle;spacingTop=-1;spacingLeft=3;spacingRight=3;rotatable=0;labelPosition=right;points=[];portConstraint=eastwest;strokeColor=inherit;" vertex="1" parent="ICdz5vnAY_I7-9OW_fg8-61">
          <mxGeometry y="144" width="160" height="8" as="geometry" />
        </mxCell>
        <mxCell id="ICdz5vnAY_I7-9OW_fg8-67" value="" style="endArrow=open;endSize=12;dashed=1;html=1;rounded=0;" edge="1" parent="1" source="ICdz5vnAY_I7-9OW_fg8-57" target="ICdz5vnAY_I7-9OW_fg8-61">
          <mxGeometry width="160" relative="1" as="geometry">
            <mxPoint x="225" y="462" as="sourcePoint" />
            <mxPoint x="385" y="462" as="targetPoint" />
          </mxGeometry>
        </mxCell>
        <mxCell id="ICdz5vnAY_I7-9OW_fg8-69" value="&amp;lt;&amp;lt;DAO&amp;gt;&amp;gt;&lt;br&gt;courseWatchDao" style="swimlane;fontStyle=1;align=center;verticalAlign=top;childLayout=stackLayout;horizontal=1;startSize=34;horizontalStack=0;resizeParent=1;resizeParentMax=0;resizeLast=0;collapsible=1;marginBottom=0;whiteSpace=wrap;html=1;" vertex="1" parent="1">
          <mxGeometry x="240" y="450" width="290" height="68" as="geometry" />
        </mxCell>
        <mxCell id="ICdz5vnAY_I7-9OW_fg8-71" value="" style="line;strokeWidth=1;fillColor=none;align=left;verticalAlign=middle;spacingTop=-1;spacingLeft=3;spacingRight=3;rotatable=0;labelPosition=right;points=[];portConstraint=eastwest;strokeColor=inherit;" vertex="1" parent="ICdz5vnAY_I7-9OW_fg8-69">
          <mxGeometry y="34" width="290" height="8" as="geometry" />
        </mxCell>
        <mxCell id="ICdz5vnAY_I7-9OW_fg8-72" value="+ updateLastLessonWatched(lesson : Lesson)" style="text;strokeColor=none;fillColor=none;align=left;verticalAlign=top;spacingLeft=4;spacingRight=4;overflow=hidden;rotatable=0;points=[[0,0.5],[1,0.5]];portConstraint=eastwest;whiteSpace=wrap;html=1;" vertex="1" parent="ICdz5vnAY_I7-9OW_fg8-69">
          <mxGeometry y="42" width="290" height="26" as="geometry" />
        </mxCell>
        <mxCell id="ICdz5vnAY_I7-9OW_fg8-73" value="courseWatchQuery" style="swimlane;fontStyle=1;align=center;verticalAlign=top;childLayout=stackLayout;horizontal=1;startSize=26;horizontalStack=0;resizeParent=1;resizeParentMax=0;resizeLast=0;collapsible=1;marginBottom=0;whiteSpace=wrap;html=1;" vertex="1" parent="1">
          <mxGeometry x="440" y="610" width="300" height="60" as="geometry" />
        </mxCell>
        <mxCell id="ICdz5vnAY_I7-9OW_fg8-75" value="" style="line;strokeWidth=1;fillColor=none;align=left;verticalAlign=middle;spacingTop=-1;spacingLeft=3;spacingRight=3;rotatable=0;labelPosition=right;points=[];portConstraint=eastwest;strokeColor=inherit;" vertex="1" parent="ICdz5vnAY_I7-9OW_fg8-73">
          <mxGeometry y="26" width="300" height="8" as="geometry" />
        </mxCell>
        <mxCell id="ICdz5vnAY_I7-9OW_fg8-76" value="+ updateLesson(stmt : Statement, lesson : Lesson)" style="text;strokeColor=none;fillColor=none;align=left;verticalAlign=top;spacingLeft=4;spacingRight=4;overflow=hidden;rotatable=0;points=[[0,0.5],[1,0.5]];portConstraint=eastwest;whiteSpace=wrap;html=1;" vertex="1" parent="ICdz5vnAY_I7-9OW_fg8-73">
          <mxGeometry y="34" width="300" height="26" as="geometry" />
        </mxCell>
        <mxCell id="ICdz5vnAY_I7-9OW_fg8-77" value="" style="endArrow=open;endFill=1;endSize=12;html=1;rounded=0;" edge="1" parent="1" source="ICdz5vnAY_I7-9OW_fg8-5" target="ICdz5vnAY_I7-9OW_fg8-69">
          <mxGeometry width="160" relative="1" as="geometry">
            <mxPoint x="240" y="204" as="sourcePoint" />
            <mxPoint x="423" y="340" as="targetPoint" />
          </mxGeometry>
        </mxCell>
        <mxCell id="ICdz5vnAY_I7-9OW_fg8-78" value="" style="endArrow=open;endFill=1;endSize=12;html=1;rounded=0;" edge="1" parent="1" source="ICdz5vnAY_I7-9OW_fg8-69" target="ICdz5vnAY_I7-9OW_fg8-73">
          <mxGeometry width="160" relative="1" as="geometry">
            <mxPoint x="220" y="204" as="sourcePoint" />
            <mxPoint x="443" y="480" as="targetPoint" />
          </mxGeometry>
        </mxCell>
      </root>
    </mxGraphModel>
  </diagram>
</mxfile>
